<svg width="18" height="32" viewBox="0 0 18 32" fill="none" xmlns="http://www.w3.org/2000/svg">
<path d="M17.4197 28.9104V28.91L17.3523 3.8686V3.8682V3.86814C17.3522 2.61504 17.0155 1.75954 16.1853 1.29474C15.8034 1.08088 15.3561 0.974476 14.8804 0.917676C14.4035 0.860741 13.8618 0.85 13.2754 0.85H4.98727C4.40708 0.85 3.86484 0.851441 3.38869 0.892916C2.91409 0.934256 2.46185 1.01817 2.0728 1.20732C1.66785 1.4042 1.34732 1.7075 1.13772 2.14762C0.935378 2.57249 0.850001 3.096 0.849999 3.72069L0.850001 3.7211L0.917425 28.7638L0.917425 28.764L0.917425 28.7642C0.917469 29.3856 1.00187 29.9003 1.21274 30.3071L1.34591 30.2381L1.21274 30.3071C1.43497 30.7359 1.77458 31.0011 2.18569 31.1532C2.57439 31.297 3.02416 31.3389 3.48602 31.3516C3.77509 31.3596 4.09763 31.3562 4.43553 31.3525L4.43784 31.3525L4.43812 31.3525C4.63862 31.3504 4.8449 31.3482 5.05469 31.3482H13.3428C13.6284 31.3482 13.8981 31.3543 14.1554 31.3608L14.2338 31.3628L14.2351 31.3629C14.4617 31.3687 14.6811 31.3743 14.8866 31.3749C15.3357 31.3764 15.7781 31.356 16.1595 31.2347C16.5684 31.1047 16.9109 30.8576 17.1329 30.4336C17.3404 30.0371 17.4197 29.5284 17.4197 28.9113V28.9104ZM16.6996 3.869L16.7618 26.9772L1.56537 26.9772L1.50275 3.72069C1.50275 3.72062 1.50275 3.72056 1.50275 3.72049C1.50275 3.69797 1.50288 3.6757 1.50312 3.65367L16.6958 3.65367C16.6983 3.72293 16.6996 3.79455 16.6996 3.8686L16.6996 3.869ZM1.57018 28.7633L1.56712 27.6299H8.861C8.23596 27.8341 7.77804 28.4145 7.77804 29.1104C7.77804 29.98 8.49324 30.6693 9.35604 30.6693C10.2188 30.6693 10.934 29.98 10.934 29.1104C10.934 28.4145 10.4761 27.8341 9.85108 27.6299H16.7635L16.767 28.9113C16.767 28.9114 16.767 28.9116 16.767 28.9117C16.7669 29.9054 16.5402 30.3271 16.168 30.5268C15.9712 30.6324 15.7168 30.6862 15.3927 30.7086C15.0687 30.731 14.6905 30.7215 14.2502 30.7103L14.2496 30.7103C13.97 30.7031 13.667 30.6954 13.3428 30.6954H5.05469C4.83335 30.6954 4.62143 30.6977 4.41987 30.6999H4.4198C3.93313 30.7052 3.51051 30.7096 3.14629 30.6812C2.78174 30.6527 2.49014 30.592 2.262 30.4756C2.03904 30.3617 1.86998 30.1912 1.75389 29.9262C1.63563 29.6563 1.57018 29.283 1.57018 28.7638L1.57018 28.7633ZM15.8665 1.8643C16.2424 2.07475 16.5025 2.41616 16.6232 3.00092L1.5559 3.00092C1.5939 2.77538 1.65163 2.58665 1.72705 2.42828C1.86959 2.12899 2.07903 1.9301 2.35821 1.79437C2.64213 1.65633 3.00213 1.58181 3.44533 1.54321C3.88805 1.50464 4.40092 1.50275 4.98727 1.50275H13.2754C13.8598 1.50275 14.3679 1.51387 14.803 1.56582C15.2385 1.61782 15.5902 1.70963 15.8665 1.8643ZM10.2813 29.1104C10.2813 29.6083 9.86958 30.0165 9.35604 30.0165C8.8425 30.0165 8.43079 29.6083 8.43079 29.1104C8.43079 28.6124 8.8425 28.2042 9.35604 28.2042C9.86958 28.2042 10.2813 28.6124 10.2813 29.1104Z" fill="white" stroke="white" stroke-width="0.3" stroke-miterlimit="10"/>
</svg>
