<svg width="25" height="38" viewBox="0 0 25 38" fill="none" xmlns="http://www.w3.org/2000/svg">
<path d="M12.4998 36.1524C12.4612 36.0956 12.4202 36.0351 12.3767 35.971C12.0362 35.468 11.5494 34.7415 10.9651 33.8482C9.79626 32.0613 8.23851 29.6095 6.68149 26.9477C5.1235 24.2843 3.57128 21.4191 2.41007 18.8041C1.23946 16.1679 0.5 13.8579 0.5 12.2777C0.5 5.78155 5.86386 0.5 12.4998 0.5C19.1358 0.5 24.5 5.78157 24.5 12.2777C24.5 13.8579 23.7605 16.1679 22.5899 18.8041C21.4286 21.4191 19.8764 24.2843 18.3183 26.9477C16.7612 29.6095 15.2035 32.0613 14.0345 33.8482C13.4502 34.7415 12.9634 35.468 12.6229 35.971C12.5794 36.0351 12.5384 36.0956 12.4998 36.1524ZM5.22297 11.9069C5.22297 15.8615 8.4956 19.0639 12.5006 19.0639C16.5048 19.0639 19.7778 15.8615 19.7778 11.9069C19.7778 7.95156 16.5052 4.74991 12.5006 4.74991C8.49564 4.74991 5.22297 7.95154 5.22297 11.9069Z" stroke="#EE6700"/>
</svg>
