<svg width="200" height="59" viewBox="0 0 200 59" fill="none" xmlns="http://www.w3.org/2000/svg">
<path fill-rule="evenodd" clip-rule="evenodd" d="M24.211 58.3137L13.0947 51.9077L0 44.3712V29.204V14.0367L13.0947 6.50023L24.211 0.0941977V7.6307L16.3919 12.1526L6.59444 17.805V29.204V40.6029L16.3919 46.2553L24.211 50.7772V58.3137ZM28.2619 13.0947V7.53651V4.89873V0L39.3782 6.40603L52.4729 13.9425V21.479L38.4362 13.3773L36.081 11.9642L34.7621 11.2105V13.0005H28.2619V13.0947ZM52.4729 44.277L39.3782 51.8135L28.2619 58.2195V52.2845V50.5888V45.0306H34.8563V46.8205L36.1752 46.0669L39.4724 44.1828L52.5671 36.6463V44.277H52.4729Z" fill="#EE6700"/>
<path d="M38.2477 16.2034H16.6744V22.7978H38.2477V16.2034Z" fill="white"/>
<path d="M38.2477 25.9067H16.6744V32.5012H38.2477V25.9067Z" fill="white"/>
<path d="M38.2477 35.5156H16.6744V42.1101H38.2477V35.5156Z" fill="white"/>
<path fill-rule="evenodd" clip-rule="evenodd" d="M16.6745 22.7978V16.2034L11.4932 22.7978V29.3923L16.6745 22.7978Z" fill="#EE6700"/>
<path fill-rule="evenodd" clip-rule="evenodd" d="M16.6745 32.407V25.9067L11.4932 32.5012V39.0014L16.6745 32.407Z" fill="#EE6700"/>
<path fill-rule="evenodd" clip-rule="evenodd" d="M16.6745 42.1101V35.5156L11.5874 42.1101H16.6745Z" fill="#EE6700"/>
<path d="M78.8506 7.25407C78.4738 6.87724 78.0027 6.68883 77.5317 6.50041C77.0606 6.40621 76.6838 6.312 76.307 6.312C76.0244 6.312 75.836 6.31201 75.5534 6.40622C75.2708 6.50042 75.0823 6.59462 74.8939 6.78303C74.7055 6.97145 74.5171 7.15987 74.4229 7.34828C74.3287 7.6309 74.2345 7.91352 74.2345 8.29034V11.8702C74.2345 12.247 74.3287 12.5296 74.4229 12.8122C74.5171 13.0949 74.7055 13.2833 74.8939 13.3775C75.0823 13.5659 75.365 13.6601 75.5534 13.7543C75.836 13.8485 76.0244 13.8485 76.307 13.8485C76.6838 13.8485 77.0606 13.7543 77.5317 13.6601C78.0027 13.5659 78.3796 13.2833 78.8506 12.9064L80.2637 15.1674C79.7927 15.6384 79.1332 15.921 78.4737 16.1095C77.8143 16.2979 77.0607 16.3921 76.307 16.3921C75.7418 16.3921 75.0823 16.2979 74.5171 16.1095C73.9519 15.921 73.3866 15.7326 72.9156 15.3558C72.4445 14.979 72.0677 14.6022 71.7851 14.1311C71.5025 13.6601 71.3141 13.0006 71.3141 12.3412V7.53669C71.3141 6.87724 71.5025 6.21779 71.7851 5.74676C72.0677 5.27573 72.4445 4.8047 72.9156 4.42788C73.3866 4.05105 73.9519 3.86264 74.5171 3.67422C75.0823 3.48581 75.6476 3.3916 76.307 3.3916C77.0607 3.3916 77.8143 3.48581 78.4737 3.67422C79.2274 3.86264 79.7926 4.23946 80.3579 4.61629L78.8506 7.25407Z" fill="white"/>
<path d="M81.9595 3.86255H90.8149V6.40613H84.8799V8.85549H89.967V11.3991H84.8799V13.9426H90.8149V16.5804H81.9595V3.86255Z" fill="white"/>
<path d="M95.7136 9.23232V16.5804H92.7932V3.86255H95.431L97.5035 6.87716L100.33 11.1164H100.424V3.86255H103.344V16.5804H100.707L98.0688 12.6237L95.8078 9.23232H95.7136Z" fill="white"/>
<path d="M110.787 6.50033V16.5804H107.772V6.50033H104.569V3.86255H113.99V6.50033H110.787Z" fill="white"/>
<path d="M118.229 9.32652H120.396C120.961 9.32652 121.338 9.23232 121.526 8.9497C121.809 8.66708 121.903 8.29025 121.903 7.91342C121.903 7.5366 121.809 7.15978 121.526 6.87716C121.243 6.59454 120.867 6.50033 120.396 6.50033H118.229V9.32652ZM120.961 3.86255C121.62 3.86255 122.28 3.95676 122.751 4.23938C123.222 4.4278 123.693 4.80462 123.975 5.18145C124.258 5.55827 124.541 6.0293 124.635 6.50033C124.823 6.97136 124.823 7.4424 124.823 8.00764C124.823 8.38446 124.729 8.66707 124.635 9.0439C124.541 9.42072 124.352 9.70334 124.258 9.98596C124.07 10.2686 123.881 10.5512 123.599 10.8338C123.316 11.1164 123.033 11.3049 122.751 11.4933L125.012 16.6746H121.903L120.019 11.9643H118.229V16.6746H115.308V3.95676H120.961V3.86255Z" fill="white"/>
<path d="M130.005 11.6817H132.642L132.36 10.8338L131.324 7.34819H131.229L130.193 10.8338L130.005 11.6817ZM133.396 14.0368H129.345L128.592 16.5804H125.389L129.91 3.86255H132.925L137.353 16.5804H134.244L133.396 14.0368Z" fill="white"/>
<path d="M138.578 16.5804V3.86255H141.498V13.9426H147.527V16.5804H138.578Z" fill="white"/>
<path d="M71.3141 22.7039H80.1695V25.3416H74.2345V27.6968H79.3216V30.3346H74.2345V32.8781H80.1695V35.4217H71.3141V22.7039Z" fill="white"/>
<path d="M92.0396 31.3708C92.0396 32.0303 91.9454 32.6897 91.5686 33.1607C91.2859 33.6318 90.9091 34.1028 90.4381 34.4796C89.967 34.8564 89.4018 35.0448 88.8365 35.2333C88.2713 35.4217 87.6119 35.5159 87.0466 35.5159C86.3872 35.5159 85.822 35.4217 85.2567 35.2333C84.6915 35.0448 84.1262 34.8564 83.6552 34.4796C83.1842 34.1028 82.8074 33.726 82.5247 33.1607C82.2421 32.6897 82.0537 32.0303 82.0537 31.3708V22.6096H84.9741V30.8056C84.9741 31.1824 85.0683 31.465 85.1625 31.7476C85.2567 32.0302 85.4451 32.2187 85.6335 32.3129C85.822 32.5013 86.0104 32.5955 86.293 32.6897C86.5756 32.7839 86.764 32.7839 87.0466 32.7839C87.235 32.7839 87.5177 32.7839 87.8003 32.6897C88.0829 32.5955 88.2713 32.5013 88.4597 32.3129C88.6481 32.1245 88.8366 31.936 88.9308 31.7476C89.025 31.5592 89.1192 31.1824 89.1192 30.8056V22.6096H92.0396V31.3708Z" fill="white"/>
<path d="M97.2208 28.1678H99.3876C99.9528 28.1678 100.33 28.0736 100.518 27.791C100.801 27.5084 100.895 27.1316 100.895 26.7547C100.895 26.3779 100.801 26.0011 100.518 25.7185C100.235 25.4359 99.8586 25.3416 99.3876 25.3416H97.2208V28.1678ZM100.047 22.7039C100.706 22.7039 101.366 22.7981 101.837 23.0807C102.308 23.2691 102.779 23.6459 103.062 24.0228C103.344 24.3996 103.627 24.8706 103.721 25.3416C103.909 25.8127 103.909 26.2837 103.909 26.8489C103.909 27.2258 103.815 27.5084 103.721 27.8852C103.627 28.262 103.438 28.5446 103.344 28.8273C103.156 29.1099 102.967 29.3925 102.685 29.6751C102.402 29.9578 102.12 30.1462 101.837 30.3346L104.098 35.5159H100.989L99.105 30.8056H97.315V35.5159H94.3947V22.7981H100.047V22.7039Z" fill="white"/>
<path d="M112.388 27.3199C112.388 26.9431 112.294 26.6605 112.2 26.3779C112.106 26.0953 111.917 25.9068 111.729 25.8126C111.54 25.6242 111.352 25.53 111.069 25.4358C110.787 25.3416 110.598 25.3416 110.316 25.3416C110.033 25.3416 109.845 25.3416 109.562 25.4358C109.279 25.53 109.091 25.6242 108.902 25.8126C108.714 26.001 108.526 26.1895 108.431 26.3779C108.337 26.6605 108.243 26.9431 108.243 27.3199V30.8998C108.243 31.2766 108.337 31.5592 108.431 31.8418C108.526 32.1245 108.714 32.3129 108.902 32.4071C109.091 32.5955 109.279 32.6897 109.562 32.7839C109.845 32.8781 110.033 32.8781 110.316 32.8781C110.504 32.8781 110.787 32.8781 111.069 32.7839C111.352 32.6897 111.54 32.5955 111.729 32.4071C111.917 32.2187 112.106 32.0303 112.2 31.8418C112.294 31.5592 112.388 31.2766 112.388 30.8998V27.3199ZM115.309 31.465C115.309 32.1245 115.214 32.7839 114.932 33.2549C114.649 33.726 114.272 34.197 113.801 34.5738C113.33 34.9506 112.859 35.1391 112.2 35.3275C111.634 35.5159 110.975 35.6101 110.316 35.6101C109.656 35.6101 108.997 35.5159 108.431 35.3275C107.866 35.1391 107.301 34.8564 106.83 34.5738C106.359 34.197 105.982 33.8202 105.699 33.2549C105.417 32.7839 105.323 32.1245 105.323 31.465V26.6605C105.323 26.001 105.511 25.3416 105.794 24.8706C106.076 24.3995 106.453 23.9285 106.924 23.6459C107.395 23.2691 107.96 23.0807 108.526 22.8922C109.091 22.7038 109.75 22.6096 110.316 22.6096C110.881 22.6096 111.54 22.7038 112.105 22.8922C112.671 23.0807 113.236 23.3633 113.707 23.6459C114.178 24.0227 114.555 24.3995 114.837 24.9648C115.12 25.4358 115.309 26.0952 115.309 26.7547V31.465Z" fill="white"/>
<path d="M123.033 22.7039C123.787 22.7039 124.352 22.7981 124.823 23.0807C125.294 23.2691 125.765 23.6459 126.048 24.0228C126.331 24.3996 126.613 24.8706 126.708 25.3416C126.896 25.8127 126.896 26.2837 126.896 26.8489C126.896 27.32 126.802 27.8852 126.613 28.3562C126.425 28.8273 126.142 29.2983 125.86 29.6751C125.483 30.052 125.106 30.3346 124.541 30.6172C124.07 30.8056 123.41 30.994 122.845 30.994H120.302V35.6101H117.381V22.8923H123.033V22.7039ZM120.396 28.1678H122.562C123.128 28.1678 123.505 28.0736 123.787 27.791C123.976 27.5084 124.164 27.1316 124.164 26.7547C124.164 26.3779 124.07 26.0011 123.787 25.7185C123.599 25.4359 123.128 25.3416 122.562 25.3416H120.396V28.1678Z" fill="white"/>
<path d="M128.309 22.7039H137.164V25.3416H131.229V27.6968H136.316V30.3346H131.229V32.8781H137.164V35.4217H128.309V22.7039Z" fill="white"/>
<path d="M142.723 30.523H145.36L145.078 29.6752L144.041 26.1895H143.947L142.911 29.6752L142.723 30.523ZM146.114 32.9724H142.063L141.309 35.5159H138.106L142.628 22.7981H145.643L150.071 35.5159H146.962L146.114 32.9724Z" fill="white"/>
<path d="M154.216 28.1678V35.4217H151.295V22.7039H153.933L156.006 25.8127L158.832 30.052V22.7039H161.846V35.4217H159.209L156.571 31.5593L154.31 28.1678H154.216Z" fill="white"/>
<path d="M78.8506 45.0309C78.4738 44.6541 78.0027 44.4657 77.5317 44.2773C77.0606 44.1831 76.6838 44.0889 76.307 44.0889C76.0244 44.0889 75.836 44.0889 75.5534 44.1831C75.2708 44.2773 75.0823 44.3715 74.8939 44.5599C74.7055 44.7483 74.5171 44.9367 74.4229 45.1251C74.3287 45.4077 74.2345 45.6904 74.2345 46.0672V49.647C74.2345 50.0239 74.3287 50.3065 74.4229 50.5891C74.5171 50.8717 74.7055 51.0601 74.8939 51.1543C75.0823 51.3427 75.365 51.4369 75.5534 51.5312C75.836 51.6254 76.0244 51.6254 76.307 51.6254C76.6838 51.6254 77.0606 51.5311 77.5317 51.4369C77.9085 51.3427 78.3796 51.0601 78.8506 50.6833L80.2637 52.9442C79.7927 53.4153 79.1332 53.6979 78.4737 53.8863C77.8143 54.0747 77.0607 54.1689 76.307 54.1689C75.7418 54.1689 75.0823 54.0747 74.5171 53.8863C73.9519 53.6979 73.3866 53.5095 72.9156 53.1327C72.4445 52.7558 72.0677 52.379 71.7851 51.908C71.5025 51.4369 71.3141 50.7775 71.3141 50.1181V45.3135C71.3141 44.6541 71.5025 43.9946 71.7851 43.5236C72.0677 43.0526 72.4445 42.5816 72.9156 42.2047C73.3866 41.8279 73.9519 41.6395 74.5171 41.4511C75.0823 41.2627 75.6476 41.1685 76.307 41.1685C77.0607 41.1685 77.8143 41.2627 78.4737 41.4511C79.2274 41.6395 79.7926 42.0163 80.3579 42.3931L78.8506 45.0309Z" fill="white"/>
<path d="M88.9307 46.161C88.9307 45.7842 88.8365 45.5016 88.7423 45.2189C88.6481 44.9363 88.4597 44.7479 88.2713 44.6537C88.0829 44.4653 87.8944 44.3711 87.6118 44.2769C87.3292 44.1827 87.1408 44.1827 86.8582 44.1827C86.5756 44.1827 86.3871 44.1827 86.1045 44.2769C85.8219 44.3711 85.6335 44.4653 85.4451 44.6537C85.2567 44.8421 85.0683 45.0305 84.9741 45.2189C84.8799 45.5016 84.7856 45.7842 84.7856 46.161V49.7408C84.7856 50.1177 84.8799 50.4003 84.9741 50.6829C85.0683 50.9655 85.2567 51.1539 85.4451 51.2481C85.6335 51.4365 85.8219 51.5308 86.1045 51.625C86.3871 51.7192 86.5756 51.7192 86.8582 51.7192C87.0466 51.7192 87.3292 51.7192 87.6118 51.625C87.8944 51.5308 88.0829 51.4365 88.2713 51.2481C88.4597 51.0597 88.6481 50.8713 88.7423 50.6829C88.8365 50.4003 88.9307 50.1177 88.9307 49.7408V46.161ZM91.8511 50.3061C91.8511 50.9655 91.7569 51.625 91.4743 52.096C91.1917 52.567 90.8148 53.0381 90.3438 53.4149C89.8728 53.7917 89.4018 53.9801 88.7423 54.1685C88.1771 54.3569 87.5176 54.4512 86.8582 54.4512C86.1987 54.4512 85.5393 54.3569 84.9741 54.1685C84.4088 53.9801 83.8436 53.6975 83.3725 53.4149C82.9015 53.0381 82.5247 52.6612 82.2421 52.096C81.9594 51.625 81.8652 50.9655 81.8652 50.3061V45.5016C81.8652 44.8421 82.0536 44.1827 82.3363 43.7116C82.6189 43.2406 82.9957 42.7696 83.4668 42.4869C83.9378 42.1101 84.503 41.9217 85.0682 41.7333C85.6335 41.5449 86.2929 41.4507 86.8582 41.4507C87.4234 41.4507 88.0829 41.5449 88.6481 41.7333C89.2133 41.9217 89.7786 42.2043 90.2496 42.4869C90.7206 42.8638 91.0975 43.2406 91.3801 43.8058C91.6627 44.2769 91.8511 44.9363 91.8511 45.5958V50.3061Z" fill="white"/>
<path d="M96.9383 47.0092V54.3573H93.9237V41.6394H96.5615L98.7282 44.7482L101.46 48.8933H101.554V41.6394H104.475V54.3573H101.837L99.1992 50.4948L97.0325 47.0092H96.9383Z" fill="white"/>
<path d="M116.345 50.5887C116.345 51.2481 116.251 51.8134 115.968 52.2844C115.685 52.7554 115.308 53.1323 114.837 53.5091C114.366 53.7917 113.801 54.0743 113.236 54.2627C112.671 54.4511 111.917 54.5454 111.258 54.5454C110.787 54.5454 110.316 54.5454 109.939 54.4512C109.468 54.357 109.091 54.3569 108.714 54.1685C108.337 54.0743 107.866 53.8859 107.489 53.6033C107.113 53.4149 106.736 53.1323 106.265 52.7554L107.866 50.5887C108.431 51.0597 108.997 51.3423 109.468 51.5308C110.033 51.7192 110.598 51.8134 111.163 51.8134C111.54 51.8134 111.917 51.8134 112.2 51.7192C112.482 51.625 112.671 51.5308 112.859 51.4365C113.048 51.3423 113.142 51.1539 113.236 51.0597C113.33 50.9655 113.33 50.7771 113.33 50.6829C113.33 50.4945 113.33 50.3061 113.236 50.2119C113.142 50.1177 112.953 49.9292 112.765 49.835C112.576 49.7408 112.294 49.5524 111.917 49.4582C111.54 49.364 111.069 49.1756 110.598 49.0814C110.033 48.893 109.468 48.7046 108.997 48.5162C108.526 48.3277 108.149 48.0451 107.866 47.7625C107.584 47.4799 107.301 47.1031 107.113 46.7262C106.924 46.3494 106.83 45.8784 106.83 45.3131C106.83 44.7479 106.924 44.1827 107.207 43.7116C107.395 43.2406 107.772 42.8638 108.149 42.4869C108.526 42.2043 109.091 41.9217 109.656 41.7333C110.221 41.5449 110.881 41.4507 111.54 41.4507C112.294 41.4507 113.048 41.5449 113.707 41.6391C114.461 41.7333 115.214 42.1101 115.968 42.5812L114.649 44.9363C114.084 44.5595 113.519 44.2769 112.953 44.1827C112.482 44.0885 111.917 43.9943 111.446 43.9943C110.975 43.9943 110.598 44.0885 110.316 44.1827C110.033 44.3711 109.845 44.5595 109.845 44.9363C109.845 45.1247 109.845 45.2189 109.939 45.4073C110.033 45.5958 110.221 45.69 110.41 45.7842C110.598 45.8784 110.881 46.0668 111.258 46.161C111.634 46.2552 112.011 46.4436 112.576 46.5378C113.424 46.7262 114.084 47.0089 114.555 47.2915C115.026 47.5741 115.403 47.8567 115.685 48.2335C115.968 48.5162 116.156 48.893 116.251 49.2698C116.345 49.835 116.345 50.2119 116.345 50.5887Z" fill="white"/>
<path d="M123.41 44.2772V54.3573H120.396V44.2772H117.193V41.6394H126.613V44.2772H123.41Z" fill="white"/>
<path d="M130.853 47.1034H133.019C133.585 47.1034 133.961 47.0092 134.15 46.7265C134.432 46.4439 134.527 46.0671 134.527 45.6903C134.527 45.3135 134.432 44.9366 134.15 44.654C133.867 44.3714 133.49 44.2772 133.019 44.2772H130.853V47.1034ZM133.585 41.6394C134.244 41.6394 134.903 41.7336 135.374 42.0162C135.845 42.2988 136.317 42.5815 136.599 42.9583C136.882 43.3351 137.164 43.8062 137.259 44.2772C137.447 44.7482 137.447 45.2192 137.447 45.7845C137.447 46.1613 137.353 46.4439 137.259 46.8208C137.164 47.1976 136.976 47.4802 136.882 47.7628C136.693 48.0454 136.505 48.328 136.222 48.6107C135.94 48.8933 135.657 49.0817 135.374 49.2701L137.635 54.4515H134.527L132.642 49.7412H130.853V54.4515H127.932V41.7336H133.585V41.6394Z" fill="white"/>
<path d="M148.94 50.3064C148.94 50.9658 148.752 51.6253 148.469 52.0963C148.186 52.5673 147.81 53.0383 147.339 53.4152C146.868 53.792 146.302 53.9804 145.737 54.1688C145.172 54.3572 144.512 54.4514 143.947 54.4514C143.288 54.4514 142.722 54.3572 142.157 54.1688C141.592 53.9804 141.027 53.792 140.556 53.4152C140.085 53.0383 139.708 52.6615 139.425 52.0963C139.143 51.6253 139.048 50.9658 139.048 50.3064V41.5452H141.969V49.7411C141.969 50.118 142.063 50.4006 142.157 50.6832C142.251 50.9658 142.44 51.1542 142.628 51.2484C142.817 51.4368 143.005 51.531 143.288 51.6253C143.57 51.7195 143.759 51.7195 144.041 51.7195C144.23 51.7195 144.512 51.7195 144.795 51.6253C145.078 51.531 145.266 51.4368 145.454 51.2484C145.643 51.06 145.831 50.8716 145.926 50.6832C146.02 50.4006 146.114 50.118 146.114 49.7411V41.5452H149.034V50.3064H148.94Z" fill="white"/>
<path d="M158.738 45.0309C158.361 44.6541 157.89 44.4657 157.419 44.2773C156.948 44.1831 156.571 44.0889 156.194 44.0889C155.911 44.0889 155.723 44.0889 155.44 44.1831C155.158 44.2773 154.969 44.3715 154.781 44.5599C154.593 44.7483 154.404 44.9367 154.31 45.1251C154.216 45.4077 154.122 45.6904 154.122 46.0672V49.647C154.122 50.0239 154.216 50.3065 154.31 50.5891C154.404 50.8717 154.593 51.0601 154.781 51.1543C154.969 51.3427 155.252 51.4369 155.44 51.5312C155.723 51.6254 155.911 51.6254 156.194 51.6254C156.571 51.6254 156.948 51.5311 157.419 51.4369C157.796 51.3427 158.267 51.0601 158.738 50.6833L160.151 52.9442C159.68 53.4153 159.02 53.6979 158.361 53.8863C157.701 54.0747 156.948 54.1689 156.194 54.1689C155.629 54.1689 154.969 54.0747 154.404 53.8863C153.839 53.6979 153.274 53.5095 152.803 53.1327C152.332 52.7558 151.955 52.379 151.672 51.908C151.39 51.4369 151.201 50.7775 151.201 50.1181V45.3135C151.201 44.6541 151.39 43.9946 151.672 43.5236C151.955 43.0526 152.332 42.5816 152.803 42.2047C153.274 41.8279 153.839 41.6395 154.404 41.4511C154.969 41.2627 155.535 41.1685 156.194 41.1685C156.948 41.1685 157.701 41.2627 158.455 41.4511C159.209 41.6395 159.774 42.0163 160.339 42.3931L158.738 45.0309Z" fill="white"/>
<path d="M167.122 44.2772V54.3573H164.202V44.2772H160.904V41.6394H170.325V44.2772H167.122Z" fill="white"/>
<path d="M174.941 41.6394H172.021V54.3573H174.941V41.6394Z" fill="white"/>
<path d="M184.456 46.161C184.456 45.7842 184.362 45.5016 184.267 45.2189C184.173 44.9363 183.985 44.7479 183.796 44.6537C183.608 44.4653 183.42 44.3711 183.137 44.2769C182.854 44.1827 182.666 44.1827 182.383 44.1827C182.101 44.1827 181.912 44.1827 181.63 44.2769C181.347 44.3711 181.159 44.4653 180.97 44.6537C180.782 44.8421 180.593 45.0305 180.499 45.2189C180.405 45.5016 180.311 45.7842 180.311 46.161V49.7408C180.311 50.1177 180.405 50.4003 180.499 50.6829C180.593 50.9655 180.782 51.1539 180.97 51.2481C181.159 51.4365 181.347 51.5308 181.63 51.625C181.912 51.7192 182.101 51.7192 182.383 51.7192C182.572 51.7192 182.854 51.7192 183.137 51.625C183.42 51.5308 183.608 51.4365 183.796 51.2481C183.985 51.0597 184.173 50.8713 184.267 50.6829C184.362 50.4003 184.456 50.1177 184.456 49.7408V46.161ZM187.376 50.3061C187.376 50.9655 187.282 51.625 186.999 52.096C186.717 52.567 186.34 53.0381 185.869 53.4149C185.398 53.7917 184.927 53.9801 184.267 54.1685C183.702 54.3569 183.043 54.4512 182.383 54.4512C181.724 54.4512 181.064 54.3569 180.499 54.1685C179.934 53.9801 179.369 53.6975 178.898 53.4149C178.427 53.0381 178.05 52.6612 177.767 52.096C177.485 51.625 177.39 50.9655 177.39 50.3061V45.5016C177.39 44.8421 177.579 44.1827 177.861 43.7116C178.144 43.2406 178.521 42.7696 178.992 42.4869C179.463 42.1101 180.028 41.9217 180.593 41.7333C181.159 41.5449 181.818 41.4507 182.383 41.4507C182.949 41.4507 183.608 41.5449 184.173 41.7333C184.738 41.9217 185.304 42.2043 185.775 42.4869C186.246 42.8638 186.623 43.2406 186.905 43.8058C187.188 44.2769 187.376 44.9363 187.376 45.5958V50.3061Z" fill="white"/>
<path d="M192.463 47.0092V54.3573H189.449V41.6394H192.087L194.253 44.7482L197.08 48.8933V41.6394H200V54.3573H197.362L194.724 50.4948L192.558 47.0092H192.463Z" fill="white"/>
</svg>
